<svg width="752" height="196" viewBox="0 0 752 196" fill="none" xmlns="http://www.w3.org/2000/svg">
<path d="M7.50024 56.3265L83.0002 12.6639L158.5 56.3265V143.673L83.0002 187.336L7.50024 143.673V56.3265Z" stroke="#FA7275" stroke-width="15"/>
<path d="M107 86C107 99.2548 96.2548 110 83 110C69.7452 110 59 99.2548 59 86C59 72.7452 69.7452 62 83 62C96.2548 62 107 72.7452 107 86Z" fill="#FA7275"/>
<rect x="70" y="96" width="25" height="43" rx="12.5" fill="#FA7275"/>
<path d="M276.584 51.784L242.92 141H229.48L195.816 51.784H208.232L236.264 128.712L264.296 51.784H276.584ZM285.004 105.672C285.004 98.504 286.455 92.232 289.356 86.856C292.257 81.3947 296.225 77.1707 301.26 74.184C306.38 71.1973 312.055 69.704 318.284 69.704C324.428 69.704 329.761 71.0267 334.284 73.672C338.807 76.3173 342.177 79.6453 344.396 83.656V70.856H356.172V141H344.396V127.944C342.092 132.04 338.636 135.453 334.028 138.184C329.505 140.829 324.215 142.152 318.156 142.152C311.927 142.152 306.295 140.616 301.26 137.544C296.225 134.472 292.257 130.163 289.356 124.616C286.455 119.069 285.004 112.755 285.004 105.672ZM344.396 105.8C344.396 100.509 343.329 95.9013 341.196 91.976C339.063 88.0507 336.161 85.064 332.492 83.016C328.908 80.8827 324.94 79.816 320.588 79.816C316.236 79.816 312.268 80.84 308.684 82.888C305.1 84.936 302.241 87.9227 300.108 91.848C297.975 95.7733 296.908 100.381 296.908 105.672C296.908 111.048 297.975 115.741 300.108 119.752C302.241 123.677 305.1 126.707 308.684 128.84C312.268 130.888 316.236 131.912 320.588 131.912C324.94 131.912 328.908 130.888 332.492 128.84C336.161 126.707 339.063 123.677 341.196 119.752C343.329 115.741 344.396 111.091 344.396 105.8ZM438.064 70.856V141H426.416V130.632C424.197 134.216 421.083 137.032 417.072 139.08C413.147 141.043 408.795 142.024 404.016 142.024C398.555 142.024 393.648 140.915 389.296 138.696C384.944 136.392 381.488 132.979 378.928 128.456C376.453 123.933 375.216 118.429 375.216 111.944V70.856H386.736V110.408C386.736 117.32 388.485 122.653 391.984 126.408C395.483 130.077 400.261 131.912 406.32 131.912C412.549 131.912 417.456 129.992 421.04 126.152C424.624 122.312 426.416 116.723 426.416 109.384V70.856H438.064ZM469.379 46.28V141H457.731V46.28H469.379ZM503.439 80.456V121.8C503.439 125.213 504.164 127.645 505.615 129.096C507.066 130.461 509.583 131.144 513.167 131.144H521.743V141H511.247C504.762 141 499.898 139.507 496.655 136.52C493.412 133.533 491.791 128.627 491.791 121.8V80.456H482.703V70.856H491.791V53.192H503.439V70.856H521.743V80.456H503.439ZM595.504 77.896C595.504 85.32 592.944 91.5067 587.824 96.456C582.789 101.32 575.067 103.752 564.656 103.752H547.504V141H535.856V51.784H564.656C574.725 51.784 582.363 54.216 587.568 59.08C592.859 63.944 595.504 70.216 595.504 77.896ZM564.656 94.152C571.141 94.152 575.92 92.744 578.992 89.928C582.064 87.112 583.6 83.1013 583.6 77.896C583.6 66.888 577.285 61.384 564.656 61.384H547.504V94.152H564.656ZM621.629 82.248C623.677 78.2373 626.578 75.1227 630.333 72.904C634.173 70.6853 638.824 69.576 644.285 69.576V81.608H641.213C628.157 81.608 621.629 88.6907 621.629 102.856V141H609.981V70.856H621.629V82.248ZM688.323 142.152C681.752 142.152 675.779 140.659 670.403 137.672C665.112 134.685 660.931 130.461 657.859 125C654.872 119.453 653.379 113.053 653.379 105.8C653.379 98.632 654.915 92.3173 657.987 86.856C661.144 81.3093 665.411 77.0853 670.787 74.184C676.163 71.1973 682.179 69.704 688.835 69.704C695.491 69.704 701.507 71.1973 706.883 74.184C712.259 77.0853 716.483 81.2667 719.555 86.728C722.712 92.1893 724.291 98.5467 724.291 105.8C724.291 113.053 722.67 119.453 719.427 125C716.27 130.461 711.96 134.685 706.499 137.672C701.038 140.659 694.979 142.152 688.323 142.152ZM688.323 131.912C692.504 131.912 696.43 130.931 700.099 128.968C703.768 127.005 706.712 124.061 708.931 120.136C711.235 116.211 712.387 111.432 712.387 105.8C712.387 100.168 711.278 95.3893 709.059 91.464C706.84 87.5387 703.939 84.6373 700.355 82.76C696.771 80.7973 692.888 79.816 688.707 79.816C684.44 79.816 680.515 80.7973 676.931 82.76C673.432 84.6373 670.616 87.5387 668.483 91.464C666.35 95.3893 665.283 100.168 665.283 105.8C665.283 111.517 666.307 116.339 668.355 120.264C670.488 124.189 673.304 127.133 676.803 129.096C680.302 130.973 684.142 131.912 688.323 131.912Z" fill="#FA7275"/>
</svg>
